<svg width="157" height="76" viewBox="0 0 157 76" fill="none" xmlns="http://www.w3.org/2000/svg">
<path fill-rule="evenodd" clip-rule="evenodd" d="M0 3.00001L3 3V3.01322C6.69491 3.20922 9.55657 5.56442 11.4483 8.49992C13.4137 11.5496 14.4876 15.4322 14.4999 18.9391C14.6382 19.7927 14.7409 20.7631 14.8082 21.6248C15.327 24.9964 15.5771 27.8125 15.7996 30.3174C15.8727 31.1406 15.9428 31.9301 16.0185 32.6947L16.0187 32.6968C16.1567 34.0901 16.2847 35.3835 16.4291 36.6142C16.6616 38.5962 16.8469 40.2069 16.9441 41.3371C16.9927 41.9022 17.0268 42.3444 17.0489 42.6466C17.06 42.7978 17.068 42.914 17.0733 42.9931L17.0808 43.1079L17.0814 43.1171C17.0814 43.1171 17.0814 43.1175 15.8564 43.2192C14.6314 43.3209 14.6622 43.3159 14.6622 43.3159H14.631L14.6298 43.2965L14.6245 43.2151C14.6196 43.1423 14.612 43.0327 14.6015 42.8882C14.5804 42.5993 14.5473 42.1714 14.5 41.6212C14.4053 40.5206 14.2234 38.9441 13.9953 37C13.8975 36.166 13.8046 35.2845 13.7069 34.3588L13.7068 34.3576C13.349 30.9649 12.3361 23 12.3361 23L12.1752 21.8999L2.45627 21.8999V43.3159H0V3.00001ZM11.4999 18.9391C11.4874 15.9773 10.5636 12.6652 8.92663 10.125C7.3861 7.73456 5.35095 6.20993 3 6.02011V18.9391H11.4999Z" fill="black"/>
<path d="M23 42.9071H21.0613V2.93066H23L23 42.9071Z" fill="black"/>
<path d="M24.8731 19.944C26.325 20.4603 27.543 21.3571 28.482 22.4935C30.0341 24.3718 31.0934 26.963 31.81 29.7526C33.2193 35.2394 33.2164 41.1374 33.2156 42.8013L33.2156 42.9071H35.3059L35.3059 42.7752C35.3073 41.0602 35.3125 34.7037 33.7685 28.6925C32.9711 25.5881 31.7384 22.4838 29.8205 20.1628C28.9459 19.1044 27.9426 18.2258 26.7971 17.5848L29.8731 12L32.3731 6.5L33 4.99999L33.3731 3.99999L33.6954 2.99999L32.3731 3C32.326 3 31.8731 3.00002 31.8731 3.00002L31.3731 3.99999L30.8731 5C30.8731 5 29.3571 8.21976 28.482 10L24.8731 16.5V19.944Z" fill="black"/>
<path d="M63.863 1.50294L62.6357 2.98276C63.089 17.4185 63.023 25.1435 62.6356 38.5761L65.0905 38.6718C65.466 25.6512 65.5411 17.9377 65.1357 4.35841H68.1214C67.7571 17.7955 67.7639 25.327 68.1623 38.6735L70.6171 38.5744C70.2064 24.8161 70.2138 17.2947 70.6171 2.97741L69.3897 1.50294H63.863Z" fill="black"/>
<path d="M60.1786 42.9071H73.6881V40.0517H60.1786V42.9071Z" fill="black"/>
<path d="M81.0376 3.94181H90.268V1.50293H78.6007V42.9071H90.268V40.4683H81.0376L81 21.6378V19.2557L81.0376 3.94181Z" fill="black"/>
<path d="M83 19.2557V21.6378H89V19.2557H83Z" fill="black"/>
<path d="M115.003 1.50294L117.287 2.23131V42.8852H114.831V7.67471C112.294 13.2311 110.693 18.0373 109.689 22.8311C108.409 28.9381 108.082 35.0981 108.076 42.8864L107.462 42.8858C107.462 42.8931 107.462 42.9005 107.462 42.9079L105.006 42.9103C105 35.1221 104.672 28.962 103.393 22.855C102.388 18.0612 100.788 13.2551 98.2509 7.69868V42.9091H95.7946V2.25527L98.0791 1.52691C102.071 9.35164 104.429 15.7338 105.779 22.1793C106.081 23.6195 106.332 25.0591 106.539 26.5146C106.747 25.051 106.999 23.6034 107.302 22.1553C108.653 15.7099 111.01 9.32768 115.003 1.50294Z" fill="black"/>
<path d="M125 43.5141L135.278 9.32882V42.9071H137.368V2.05999L135.365 1.45306L125.087 35.6383V1.50295H122.997V42.9071L125 43.5141Z" fill="black"/>
<path d="M147.558 2.38901C149.54 0.679507 152.384 -0.131636 155.971 0.0173729L156.986 1.53401L156.986 42.9072H155V3C152.144 3.04175 149.975 3.83366 148.626 4.99747C147.18 6.24505 146.533 7.96716 146.547 10.0546C146.553 11.0866 146.755 11.9129 147.103 12.5857C147.459 13.2713 148.008 13.8767 148.789 14.3451C149.829 14.9701 151.276 15.319 153 15.3122V18.5944C151.073 18.5182 149.342 17.9612 147.99 17.1492C146.946 16.5228 146.061 15.6224 145.433 14.4094C144.798 13.1836 144.467 11.7184 144.456 10.084C144.435 6.83884 145.519 4.14838 147.558 2.38901Z" fill="black"/>
<path d="M149.369 20.7705L149.369 20.7773H151.459C151.459 21.4754 151.259 22.2791 151.06 22.9634C150.84 23.7179 150.535 24.6016 150.184 25.5533C149.624 27.0731 148.914 28.8538 148.186 30.6814L148.185 30.6831C148.002 31.1416 147.818 31.6034 147.635 32.0645C146.713 34.3863 145.809 36.7099 145.136 38.71C144.799 39.71 144.53 40.6008 144.347 41.3504C144.157 42.1302 144.09 42.6357 144.09 42.9072H142C142 42.1078 142.164 41.2079 142.377 40.3369C142.597 39.4357 142.903 38.4303 143.258 37.3778C143.966 35.2733 144.904 32.8675 145.824 30.5492C146.012 30.0757 146.199 29.6062 146.384 29.1433L146.385 29.1388L146.386 29.1368C147.113 27.3141 147.799 25.5924 148.341 24.1215C148.681 23.1994 148.952 22.4099 149.135 21.7813C149.226 21.4673 149.289 21.2158 149.328 21.0232C149.359 20.8706 149.366 20.7936 149.368 20.775L149.369 20.7705Z" fill="black"/>
<path fill-rule="evenodd" clip-rule="evenodd" d="M40 3.00001L43 3V3.01322C46.6949 3.20922 49.5566 5.56442 51.4483 8.49992C53.4137 11.5496 54.4876 15.4322 54.4999 18.9391C54.6382 19.7927 54.7409 20.7631 54.8082 21.6248C55.327 24.9964 55.5771 27.8125 55.7996 30.3174C55.8727 31.1406 55.9428 31.9301 56.0185 32.6947L56.0187 32.6968C56.1567 34.0901 56.2847 35.3835 56.4291 36.6142C56.6616 38.5962 56.8469 40.2069 56.9441 41.3371C56.9927 41.9022 57.0268 42.3444 57.0489 42.6466C57.06 42.7978 57.068 42.914 57.0733 42.9931L57.0808 43.1079L57.0814 43.1171C57.0814 43.1171 57.0814 43.1175 55.8564 43.2192C54.6314 43.3209 54.6622 43.3159 54.6622 43.3159H54.631L54.6298 43.2965L54.6245 43.2151C54.6196 43.1423 54.612 43.0327 54.6015 42.8882C54.5804 42.5993 54.5473 42.1714 54.5 41.6212C54.4053 40.5206 54.2234 38.9441 53.9953 37C53.8975 36.166 53.8046 35.2845 53.7069 34.3588L53.7068 34.3576C53.349 30.9649 52.3361 23 52.3361 23L52.1752 21.8999L42.4563 21.8999V43.3159H40V3.00001ZM51.4999 18.9391C51.4874 15.9773 50.5636 12.6652 48.9266 10.125C47.3861 7.73456 45.351 6.20993 43 6.02011V18.9391H51.4999Z" fill="black"/>
<path d="M0 74.1045V66.2388H5.9017V67.5075H1.46067V74.1045H0Z" fill="black"/>
<path d="M14.3854 76V66.1194H15.8166V67.2985C16.1313 66.9303 16.4903 66.6269 16.8936 66.3881C17.2969 66.1393 17.7444 66.0149 18.2363 66.0149C18.9445 66.0149 19.5297 66.199 19.992 66.5672C20.4543 66.9254 20.7986 67.398 21.0248 67.9851C21.251 68.5622 21.3642 69.1741 21.3642 69.8209C21.3642 70.2886 21.3051 70.7612 21.1871 71.2388C21.0691 71.7065 20.8871 72.1393 20.6412 72.5373C20.3953 72.9254 20.0756 73.2388 19.6822 73.4776C19.2986 73.7164 18.8412 73.8358 18.31 73.8358C17.7985 73.8358 17.3313 73.7065 16.9084 73.4478C16.4953 73.1891 16.1313 72.8657 15.8166 72.4776V76H14.3854ZM18.1477 72.6119C18.5313 72.6119 18.8412 72.5224 19.0772 72.3433C19.3133 72.1642 19.4904 71.9303 19.6084 71.6418C19.7264 71.3532 19.8051 71.0448 19.8445 70.7164C19.8937 70.3781 19.9182 70.0547 19.9182 69.7463C19.9182 69.3383 19.8494 68.9453 19.7117 68.5672C19.5838 68.1791 19.3773 67.8607 19.092 67.6119C18.8068 67.3632 18.433 67.2388 17.9707 67.2388C17.6559 67.2388 17.3313 67.3234 16.9969 67.4925C16.6625 67.6517 16.3821 67.8706 16.1559 68.1493C15.9297 68.4279 15.8166 68.7463 15.8166 69.1045V70.8358C15.8166 71.0846 15.8952 71.3184 16.0526 71.5373C16.21 71.7463 16.4116 71.9353 16.6576 72.1045C16.9035 72.2637 17.1592 72.3881 17.4248 72.4776C17.6903 72.5672 17.9313 72.6119 18.1477 72.6119Z" fill="black"/>
<path d="M31.2938 74.209C30.6446 74.209 30.1036 74.0249 29.6708 73.6567C29.238 73.2886 29.0216 72.7612 29.0216 72.0746C29.0216 71.5771 29.1347 71.1542 29.361 70.806C29.597 70.4577 29.902 70.1692 30.2757 69.9403C30.6593 69.7015 31.0774 69.5174 31.5298 69.3881C31.9823 69.2488 32.4348 69.1443 32.8872 69.0746C33.3397 69.005 33.7528 68.9552 34.1266 68.9254C34.1266 68.6567 34.1069 68.393 34.0676 68.1343C34.0381 67.8657 33.9495 67.6468 33.802 67.4776C33.6544 67.3085 33.4036 67.2239 33.0495 67.2239C32.4298 67.2239 31.8298 67.3433 31.2495 67.5821C30.6692 67.8109 30.1233 68.0995 29.6118 68.4478V66.9851C30.1626 66.6667 30.738 66.4279 31.338 66.2687C31.9479 66.0995 32.5676 66.0149 33.1971 66.0149C34.0036 66.0149 34.5889 66.2289 34.9528 66.6567C35.3266 67.0746 35.5135 67.6816 35.5135 68.4776V72.3582C35.5135 72.3881 35.5184 72.4577 35.5282 72.5672C35.5381 72.6667 35.5774 72.7164 35.6463 72.7164C35.725 72.7164 35.8233 72.6816 35.9414 72.6119C36.0594 72.5423 36.1725 72.4677 36.2807 72.3881C36.3987 72.2985 36.4873 72.2338 36.5463 72.194V73.6716C36.3102 73.8109 36.0545 73.9353 35.7791 74.0448C35.5135 74.1542 35.2381 74.209 34.9528 74.209C34.6577 74.209 34.4512 74.1592 34.3331 74.0597C34.2249 73.9502 34.161 73.806 34.1413 73.6269C34.1315 73.4478 34.1266 73.2438 34.1266 73.0149C33.7331 73.3632 33.2954 73.6517 32.8135 73.8806C32.3413 74.0995 31.8348 74.209 31.2938 74.209ZM31.5889 73.0597C32.0512 73.0597 32.5036 72.9254 32.9462 72.6567C33.3987 72.3781 33.7922 72.0896 34.1266 71.791V70.0597C33.9004 70.0796 33.6299 70.1095 33.3151 70.1493C33.0003 70.1891 32.6708 70.2537 32.3266 70.3433C31.9921 70.4229 31.6774 70.5323 31.3823 70.6716C31.097 70.8109 30.861 70.995 30.6741 71.2239C30.497 71.4428 30.4085 71.7114 30.4085 72.0299C30.4085 72.408 30.5167 72.6766 30.7331 72.8358C30.9593 72.9851 31.2446 73.0597 31.5889 73.0597Z" fill="black"/>
<path d="M44.0414 74.1045V66.1194H45.3251L47.8923 69.4478L50.4595 66.1194H51.7432V74.1045H50.3563V68.0448L47.8923 71.194L45.4283 68.0448V74.1045H44.0414Z" fill="black"/>
<path d="M63.0007 74.209C62.2039 74.209 61.5203 74.0299 60.9498 73.6716C60.3793 73.3134 59.9416 72.8259 59.6367 72.209C59.3416 71.5821 59.1941 70.8806 59.1941 70.1045C59.1941 69.3085 59.3465 68.602 59.6514 67.9851C59.9662 67.3682 60.4137 66.8856 60.9941 66.5373C61.5744 66.1891 62.2679 66.0149 63.0744 66.0149C63.8515 66.0149 64.5154 66.199 65.0663 66.5672C65.6269 66.9353 66.0548 67.4279 66.3499 68.0448C66.6548 68.6617 66.8073 69.3483 66.8073 70.1045C66.8073 70.8806 66.6548 71.5771 66.3499 72.194C66.0548 72.8109 65.622 73.3035 65.0515 73.6716C64.481 74.0299 63.7974 74.209 63.0007 74.209ZM63.0007 72.9403C63.6007 72.9403 64.0679 72.8159 64.4023 72.5672C64.7466 72.3184 64.9925 71.9801 65.14 71.5522C65.2876 71.1144 65.3613 70.6219 65.3613 70.0746C65.3613 69.5572 65.2728 69.0896 65.0958 68.6716C64.9285 68.2537 64.6679 67.9204 64.3138 67.6716C63.9597 67.4129 63.5072 67.2836 62.9564 67.2836C62.4252 67.2836 61.9875 67.4179 61.6433 67.6866C61.299 67.9552 61.0433 68.3035 60.876 68.7313C60.7187 69.1592 60.64 69.6169 60.64 70.1045C60.64 70.6119 60.7187 71.0846 60.876 71.5224C61.0433 71.9502 61.299 72.2935 61.6433 72.5522C61.9974 72.8109 62.4498 72.9403 63.0007 72.9403Z" fill="black"/>
<path d="M77.3861 74.209V67.4627H74.4352V66.2388H81.7681V67.4627H78.8467V74.209H77.3861Z" fill="black"/>
<path d="M89.8977 74.1045V66.1194H91.3288V69.3134H95.1207V66.1194H96.5518V74.1045H95.1207V70.5075H91.3288V74.1045H89.8977Z" fill="black"/>
<path d="M108.326 74.209C107.529 74.209 106.845 74.0299 106.275 73.6716C105.704 73.3134 105.267 72.8259 104.962 72.209C104.667 71.5821 104.519 70.8806 104.519 70.1045C104.519 69.3085 104.672 68.602 104.977 67.9851C105.291 67.3682 105.739 66.8856 106.319 66.5373C106.899 66.1891 107.593 66.0149 108.399 66.0149C109.177 66.0149 109.84 66.199 110.391 66.5672C110.952 66.9353 111.38 67.4279 111.675 68.0448C111.98 68.6617 112.132 69.3483 112.132 70.1045C112.132 70.8806 111.98 71.5771 111.675 72.194C111.38 72.8109 110.947 73.3035 110.377 73.6716C109.806 74.0299 109.122 74.209 108.326 74.209ZM108.326 72.9403C108.926 72.9403 109.393 72.8159 109.727 72.5672C110.072 72.3184 110.318 71.9801 110.465 71.5522C110.613 71.1144 110.686 70.6219 110.686 70.0746C110.686 69.5572 110.598 69.0896 110.421 68.6716C110.254 68.2537 109.993 67.9204 109.639 67.6716C109.285 67.4129 108.832 67.2836 108.281 67.2836C107.75 67.2836 107.313 67.4179 106.968 67.6866C106.624 67.9552 106.368 68.3035 106.201 68.7313C106.044 69.1592 105.965 69.6169 105.965 70.1045C105.965 70.6119 106.044 71.0846 106.201 71.5224C106.368 71.9502 106.624 72.2935 106.968 72.5522C107.322 72.8109 107.775 72.9403 108.326 72.9403Z" fill="black"/>
<path d="M124.172 74.2239C123.395 74.2239 122.716 74.0498 122.136 73.7015C121.555 73.3433 121.108 72.8557 120.793 72.2388C120.478 71.6219 120.321 70.9303 120.321 70.1642C120.321 69.4179 120.473 68.7313 120.778 68.1045C121.093 67.4677 121.536 66.9602 122.106 66.5821C122.677 66.194 123.346 66 124.113 66C124.998 66 125.8 66.2736 126.518 66.8209V68.3134C126.173 68.0149 125.795 67.7711 125.382 67.5821C124.969 67.3831 124.531 67.2836 124.069 67.2836C123.528 67.2836 123.09 67.4129 122.755 67.6716C122.421 67.9303 122.175 68.2736 122.018 68.7015C121.86 69.1194 121.782 69.5721 121.782 70.0597C121.782 70.5373 121.865 71 122.032 71.4478C122.209 71.8856 122.47 72.2438 122.814 72.5224C123.168 72.801 123.611 72.9403 124.142 72.9403C124.595 72.9403 125.023 72.8308 125.426 72.6119C125.839 72.393 126.213 72.1443 126.547 71.8657V73.4328C125.829 73.9602 125.037 74.2239 124.172 74.2239Z" fill="black"/>
<path d="M137.819 74.209V67.4627H134.869V66.2388H142.201V67.4627H139.28V74.209H137.819Z" fill="black"/>
<path d="M150.316 74.1045V66.1194H151.747V71.8657L155.775 66.1194H157V74.1045H155.569V68.3582L151.541 74.1045H150.316Z" fill="black"/>
<path d="M4.6559 64V60.1836C4.43113 60.4934 4.1582 60.7699 3.8371 61.0133C3.52671 61.2456 3.16815 61.3617 2.76143 61.3617C2.21556 61.3617 1.76603 61.229 1.41282 60.9635C1.05962 60.698 0.775983 60.3496 0.561918 59.9181C0.358557 59.4867 0.214064 59.0277 0.128438 58.5409C0.0428128 58.0431 0 57.5675 0 57.1139C0 56.6383 0.0428128 56.1571 0.128438 55.6704C0.224767 55.1726 0.379964 54.7135 0.594028 54.2931C0.818795 53.8728 1.11313 53.5354 1.47704 53.281C1.85165 53.0265 2.31724 52.8993 2.87381 52.8993C3.25913 52.8993 3.59628 53.0044 3.88526 53.2146C4.18495 53.4137 4.44183 53.6737 4.6559 53.9945V49H6.11688V53.9945C6.33095 53.6737 6.58247 53.4137 6.87146 53.2146C7.17115 53.0044 7.51365 52.8993 7.89897 52.8993C8.44483 52.8993 8.89972 53.0265 9.26363 53.281C9.63824 53.5354 9.93258 53.8728 10.1466 54.2931C10.3714 54.7135 10.532 55.1726 10.6283 55.6704C10.7246 56.1571 10.7728 56.6383 10.7728 57.1139C10.7728 57.5675 10.73 58.0431 10.6443 58.5409C10.5587 59.0277 10.4089 59.4867 10.1948 59.9181C9.99144 60.3496 9.71316 60.698 9.35995 60.9635C9.00675 61.229 8.55721 61.3617 8.01135 61.3617C7.61533 61.3617 7.25677 61.2456 6.93568 61.0133C6.61458 60.7699 6.34165 60.4934 6.11688 60.1836V64H4.6559ZM3.05041 60.0177C3.39292 60.0177 3.69796 59.9015 3.96554 59.6692C4.24382 59.4259 4.47394 59.1715 4.6559 58.906V55.4546C4.50605 55.167 4.30804 54.896 4.06187 54.6416C3.8264 54.3761 3.53206 54.2434 3.17885 54.2434C2.70791 54.2434 2.34935 54.3872 2.10318 54.6748C1.86771 54.9624 1.71251 55.3164 1.63759 55.7367C1.56267 56.146 1.52521 56.5442 1.52521 56.9314C1.52521 57.1969 1.53591 57.5066 1.55732 57.8606C1.58943 58.2035 1.65365 58.5409 1.74997 58.8728C1.85701 59.2046 2.0122 59.4812 2.21556 59.7024C2.41892 59.9126 2.69721 60.0177 3.05041 60.0177ZM7.72236 60.0177C8.07557 60.0177 8.35385 59.9126 8.55721 59.7024C8.76058 59.4812 8.91042 59.2046 9.00675 58.8728C9.11378 58.5409 9.178 58.2035 9.19941 57.8606C9.23152 57.5066 9.24757 57.1969 9.24757 56.9314C9.24757 56.5442 9.21011 56.146 9.13519 55.7367C9.06027 55.3164 8.90507 54.9624 8.6696 54.6748C8.43413 54.3872 8.07557 54.2434 7.59393 54.2434C7.24072 54.2434 6.94103 54.3761 6.69486 54.6416C6.45939 54.896 6.26673 55.167 6.11688 55.4546V58.906C6.29884 59.1715 6.52896 59.4259 6.80724 59.6692C7.08552 59.9015 7.39056 60.0177 7.72236 60.0177Z" fill="black"/>
<path d="M18.2062 61.8927V53.0155H19.7635V59.4038L24.1464 53.0155H25.479V61.8927H23.9217V55.5044L19.5387 61.8927H18.2062Z" fill="black"/>
<path d="M34.6623 61.8927V53.0155H36.2197V56.5664H40.3457V53.0155H41.9031V61.8927H40.3457V57.8938H36.2197V61.8927H34.6623Z" fill="black"/>
<path d="M53.0933 62.0088C52.3868 62.0088 51.7982 61.8042 51.3272 61.3949C50.8563 60.9856 50.6208 60.3993 50.6208 59.6361C50.6208 59.083 50.7439 58.6128 50.9901 58.2257C51.247 57.8385 51.5788 57.5177 51.9855 57.2633C52.4029 56.9978 52.8578 56.7931 53.3501 56.6493C53.8425 56.4945 54.3348 56.3783 54.8272 56.3009C55.3195 56.2235 55.7691 56.1681 56.1758 56.135C56.1758 55.8363 56.1544 55.5431 56.1116 55.2555C56.0795 54.9569 55.9831 54.7135 55.8226 54.5254C55.662 54.3374 55.3891 54.2434 55.0038 54.2434C54.3295 54.2434 53.6766 54.3761 53.0451 54.6416C52.4136 54.896 51.8196 55.2168 51.263 55.604V53.9779C51.8624 53.6239 52.4885 53.3584 53.1414 53.1814C53.805 52.9934 54.4793 52.8993 55.1643 52.8993C56.042 52.8993 56.6788 53.1372 57.0749 53.6128C57.4816 54.0774 57.6849 54.7522 57.6849 55.6372V59.9513C57.6849 59.9845 57.6903 60.0619 57.701 60.1836C57.7117 60.2942 57.7545 60.3496 57.8294 60.3496C57.9151 60.3496 58.0221 60.3108 58.1505 60.2334C58.279 60.156 58.4021 60.073 58.5198 59.9845C58.6482 59.885 58.7446 59.8131 58.8088 59.7688V61.4115C58.5519 61.5664 58.2736 61.7046 57.9739 61.8263C57.6849 61.948 57.3852 62.0088 57.0749 62.0088C56.7538 62.0088 56.529 61.9535 56.4006 61.8429C56.2828 61.7212 56.2132 61.5608 56.1918 61.3617C56.1811 61.1626 56.1758 60.9358 56.1758 60.6814C55.7477 61.0686 55.2714 61.3894 54.7469 61.6438C54.2332 61.8872 53.6819 62.0088 53.0933 62.0088ZM53.4144 60.7312C53.9174 60.7312 54.4098 60.5819 54.8914 60.2832C55.3837 59.9735 55.8119 59.6527 56.1758 59.3208V57.396C55.9296 57.4181 55.6353 57.4513 55.2928 57.4956C54.9503 57.5398 54.5917 57.6117 54.2171 57.7113C53.8532 57.7998 53.5107 57.9215 53.1896 58.0763C52.8792 58.2312 52.6223 58.4358 52.419 58.6903C52.2263 58.9336 52.13 59.2323 52.13 59.5863C52.13 60.0066 52.2477 60.3053 52.4832 60.4823C52.7294 60.6482 53.0397 60.7312 53.4144 60.7312Z" fill="black"/>
<path d="M67.5426 61.8927V53.0155H69.0999V56.5664H73.226V53.0155H74.7833V61.8927H73.226V57.8938H69.0999V61.8927H67.5426Z" fill="black"/>
<path d="M88.3978 62.0254C87.5522 62.0254 86.8137 61.8319 86.1822 61.4447C85.5507 61.0465 85.0637 60.5044 84.7212 59.8186C84.3787 59.1327 84.2075 58.3639 84.2075 57.5122C84.2075 56.6825 84.3734 55.9192 84.7052 55.2223C85.0477 54.5144 85.5293 53.9502 86.1501 53.5299C86.7709 53.0985 87.4987 52.8827 88.3336 52.8827C89.2969 52.8827 90.1692 53.1869 90.9505 53.7954V55.4546C90.5759 55.1228 90.1638 54.8518 89.7143 54.6416C89.2648 54.4204 88.7885 54.3097 88.2854 54.3097C87.6967 54.3097 87.2204 54.4535 86.8565 54.7412C86.4926 55.0288 86.225 55.4104 86.0538 55.8861C85.8825 56.3507 85.7969 56.854 85.7969 57.396C85.7969 57.927 85.8879 58.4414 86.0698 58.9392C86.2625 59.4259 86.5461 59.8241 86.9207 60.1338C87.3061 60.4436 87.7877 60.5985 88.3657 60.5985C88.858 60.5985 89.3236 60.4768 89.7625 60.2334C90.212 59.99 90.6187 59.7135 90.9826 59.4038V61.146C90.2013 61.7323 89.3397 62.0254 88.3978 62.0254Z" fill="black"/>
<path d="M104.035 62.0088C103.168 62.0088 102.424 61.8097 101.804 61.4115C101.183 61.0133 100.706 60.4712 100.375 59.7854C100.054 59.0885 99.893 58.3086 99.893 57.4458C99.893 56.5608 100.059 55.7754 100.391 55.0896C100.733 54.4038 101.22 53.8673 101.852 53.4801C102.483 53.0929 103.238 52.8993 104.115 52.8993C104.961 52.8993 105.683 53.104 106.283 53.5133C106.893 53.9226 107.359 54.4701 107.68 55.156C108.011 55.8418 108.177 56.6051 108.177 57.4458C108.177 58.3086 108.011 59.083 107.68 59.7688C107.359 60.4546 106.888 61.0022 106.267 61.4115C105.646 61.8097 104.902 62.0088 104.035 62.0088ZM104.035 60.5985C104.688 60.5985 105.196 60.4602 105.56 60.1836C105.935 59.9071 106.203 59.531 106.363 59.0553C106.524 58.5686 106.604 58.021 106.604 57.4126C106.604 56.8374 106.508 56.3175 106.315 55.8529C106.133 55.3883 105.849 55.0177 105.464 54.7412C105.079 54.4535 104.586 54.3097 103.987 54.3097C103.409 54.3097 102.933 54.4591 102.558 54.7577C102.184 55.0564 101.905 55.4436 101.723 55.9192C101.552 56.3949 101.466 56.9038 101.466 57.4458C101.466 58.01 101.552 58.5354 101.723 59.0221C101.905 59.4978 102.184 59.8794 102.558 60.167C102.943 60.4546 103.436 60.5985 104.035 60.5985Z" fill="black"/>
<path d="M117.168 61.7765V53.1482H120.716C121.23 53.1482 121.717 53.2091 122.177 53.3308C122.648 53.4524 123.033 53.6792 123.333 54.0111C123.633 54.3429 123.783 54.8186 123.783 55.4381C123.783 55.8142 123.686 56.146 123.494 56.4336C123.301 56.7212 123.049 56.9591 122.739 57.1471C123.21 57.3573 123.569 57.6504 123.815 58.0265C124.061 58.4027 124.184 58.8562 124.184 59.3872C124.184 59.885 124.082 60.2942 123.879 60.615C123.676 60.9248 123.408 61.1681 123.076 61.3451C122.744 61.5111 122.375 61.6272 121.968 61.6936C121.572 61.7489 121.176 61.7765 120.78 61.7765H117.168ZM118.677 56.7157H120.716C121.123 56.7157 121.481 56.6383 121.792 56.4834C122.113 56.3175 122.273 55.9912 122.273 55.5044C122.273 55.1947 122.193 54.9624 122.033 54.8075C121.883 54.6416 121.685 54.531 121.439 54.4757C121.203 54.4204 120.962 54.3927 120.716 54.3927H118.677V56.7157ZM118.677 60.5321H120.925C121.203 60.5321 121.476 60.4989 121.744 60.4325C122.011 60.3661 122.231 60.2445 122.402 60.0675C122.584 59.8794 122.675 59.6139 122.675 59.271C122.675 58.8285 122.562 58.5188 122.338 58.3418C122.124 58.1648 121.856 58.0597 121.535 58.0265C121.214 57.9823 120.893 57.9602 120.572 57.9602H118.677V60.5321Z" fill="black"/>
<path d="M136.915 62.0088C136.048 62.0088 135.305 61.8097 134.684 61.4115C134.063 61.0133 133.587 60.4712 133.255 59.7854C132.934 59.0885 132.773 58.3086 132.773 57.4458C132.773 56.5608 132.939 55.7754 133.271 55.0896C133.613 54.4038 134.1 53.8673 134.732 53.4801C135.363 53.0929 136.118 52.8993 136.996 52.8993C137.841 52.8993 138.564 53.104 139.163 53.5133C139.773 53.9226 140.239 54.4701 140.56 55.156C140.892 55.8418 141.058 56.6051 141.058 57.4458C141.058 58.3086 140.892 59.083 140.56 59.7688C140.239 60.4546 139.768 61.0022 139.147 61.4115C138.526 61.8097 137.782 62.0088 136.915 62.0088ZM136.915 60.5985C137.568 60.5985 138.077 60.4602 138.441 60.1836C138.815 59.9071 139.083 59.531 139.243 59.0553C139.404 58.5686 139.484 58.021 139.484 57.4126C139.484 56.8374 139.388 56.3175 139.195 55.8529C139.013 55.3883 138.73 55.0177 138.344 54.7412C137.959 54.4535 137.467 54.3097 136.867 54.3097C136.289 54.3097 135.813 54.4591 135.438 54.7577C135.064 55.0564 134.785 55.4436 134.604 55.9192C134.432 56.3949 134.347 56.9038 134.347 57.4458C134.347 58.01 134.432 58.5354 134.604 59.0221C134.785 59.4978 135.064 59.8794 135.438 60.167C135.824 60.4546 136.316 60.5985 136.915 60.5985Z" fill="black"/>
<path d="M153.356 52.5011C152.617 52.5011 152.018 52.302 151.557 51.9038C151.108 51.5055 150.781 50.9469 150.578 50.2279H152.055C152.141 50.5708 152.285 50.8584 152.489 51.0907C152.703 51.3119 152.992 51.4226 153.356 51.4226C153.73 51.4226 154.019 51.3119 154.223 51.0907C154.426 50.8584 154.576 50.5708 154.672 50.2279H156.149C155.946 50.958 155.614 51.5221 155.154 51.9204C154.704 52.3075 154.105 52.5011 153.356 52.5011ZM149.727 61.8927V53.0155H151.284V59.4038L155.667 53.0155H157V61.8927H155.443V55.5044L151.06 61.8927H149.727Z" fill="black"/>
</svg>
