<svg width="103" height="123" viewBox="0 0 103 123" fill="none" xmlns="http://www.w3.org/2000/svg">
<path d="M44.5717 1.00519C44.2902 0.976399 44.0096 1.06828 43.7996 1.25803C43.5896 1.44779 43.4698 1.71765 43.47 2.00069L43.4931 35.6532H27.351C15.1459 35.6532 1 44.1207 1 60.8909V64.3333C1 72.7635 4.04408 78.957 9.05299 83.0209C14.0306 87.0594 20.8367 88.9053 28.2315 88.9053H43.47V121C43.47 121.552 43.9177 122 44.47 122H46.9683C47.5205 122 47.9683 121.552 47.9683 121V88.9053H86.9837C87.2541 88.9053 87.5129 88.7959 87.7013 88.6019C87.8896 88.4079 87.9913 88.1459 87.9833 87.8756C87.9417 86.4753 87.9035 85.1288 87.8667 83.8316C87.5831 73.8316 87.3826 66.7612 86.3375 60.5669C85.2241 53.9672 83.1561 48.3668 79.0784 41.2311H97.334V47.6686C97.334 48.2209 97.7817 48.6686 98.334 48.6686H101C101.552 48.6686 102 48.2209 102 47.6686V36.5124C102 35.9601 101.552 35.5124 101 35.5124H77.215C76.9127 35.0472 76.603 34.5697 76.2862 34.0813C72.4766 28.2078 67.6513 20.7682 62.5058 14.4574C59.6477 10.9519 56.6645 7.76122 53.6722 5.36718C50.694 2.98442 47.615 1.31632 44.5717 1.00519ZM47.9915 41.2311H73.0701C73.1865 41.4136 73.316 41.6152 73.4562 41.8336C73.8957 42.5183 74.4412 43.368 75.0248 44.308C75.9534 45.8038 76.808 47.262 77.1269 48.0456C81.167 57.9726 81.7937 68.1175 82.4687 79.0435C82.5714 80.7065 82.6753 82.3876 82.7925 84.0888H47.9688L47.9915 41.2311ZM47.9912 35.6532L47.9693 6.59848C49.5007 7.24173 51.1392 8.48825 52.8594 10.2421C55.0208 12.4457 57.2068 15.3408 59.3609 18.5229C61.5124 21.7012 63.6087 25.1306 65.6004 28.3945L65.7137 28.5803C67.2575 31.1104 68.7416 33.5427 70.1286 35.6532H47.9912ZM27.351 41.2311H43.4932L43.4705 84.0888H28.2315C21.8102 84.0888 16.1232 82.622 12.0636 79.4634C8.04372 76.3357 5.49823 71.4558 5.49823 64.3333V60.8909C5.49823 53.7387 7.84469 48.8856 11.6407 45.7948C15.4722 42.6752 20.9267 41.2311 27.351 41.2311Z" fill="#263E79" stroke="#263E79" stroke-width="2" stroke-linejoin="round"/>
</svg>
