<svg width="181" height="167" viewBox="0 0 181 167" fill="none" xmlns="http://www.w3.org/2000/svg">
<g filter="url(#filter0_d_42_45)">
<path d="M51.6202 140.842V36.987C51.6202 34.1196 48.6921 32.1836 46.0538 33.3064L7.4513 49.7351C5.92928 50.3829 4.96296 51.9006 5.02007 53.5538L8.04023 140.98C8.11464 143.134 9.88246 144.842 12.0378 144.842H47.6202C49.8293 144.842 51.6202 143.051 51.6202 140.842Z" fill="url(#paint0_linear_42_45)"/>
<path d="M51.6202 140.842V36.987C51.6202 34.1196 48.6921 32.1836 46.0538 33.3064L7.4513 49.7351C5.92928 50.3829 4.96296 51.9006 5.02007 53.5538L8.04023 140.98C8.11464 143.134 9.88246 144.842 12.0378 144.842H47.6202C49.8293 144.842 51.6202 143.051 51.6202 140.842Z" stroke="url(#paint1_linear_42_45)"/>
</g>
<path fill-rule="evenodd" clip-rule="evenodd" d="M45.4884 2.46986L45.4935 2.46945L45.4947 2.4881L45.4884 2.46986ZM47.4678 32.3226L47.9001 38.8596L52.6202 38.4841V39.5838L47.9725 39.9535L48.8918 53.8533L52.6202 53.5567V54.6563L48.9641 54.9472L49.9542 69.9179L52.6202 69.7058V70.8054L50.0265 71.0118L51.0166 85.9825L52.6202 85.8549V86.9546L51.089 87.0764L52.0791 102.047L52.6202 102.004V103.104L52.1514 103.141L52.6202 110.23V125.39L52.2165 119.285L37.693 120.44L38.6123 134.34L52.6202 133.226V134.325L38.6846 135.434L39.3173 145H38.3146L37.6872 135.513L23.1637 136.669L23.7147 145H22.7121L22.1664 136.748L7.74081 137.896L7.69749 136.799L22.094 135.654L21.1747 121.754L7.14697 122.87L7.10365 121.774L21.1024 120.66L20.1123 105.69L6.5107 106.772L6.46738 105.676L20.04 104.596L19.0499 89.6252L5.87443 90.6733L5.83111 89.5771L18.9775 88.5313L17.9874 73.5606L5.23817 74.5748L5.19484 73.4786L17.9151 72.4667L16.925 57.496L4.6019 58.4763L4.55857 57.3801L16.8526 56.4021L16.1254 45.4052L17.101 44.998L17.85 56.3227L32.3735 55.1673L31.4542 41.2676L24.7626 41.7999L28.0174 40.4414L31.3819 40.1737L31.3087 39.0675L32.2844 38.6603L32.3793 40.0944L46.9028 38.939L46.4921 32.7298L47.4678 32.3226ZM4.0689 43.4462L4.00805 43.451L4.00001 43.2477L4.0689 43.4462ZM75.5477 0.228268H76.5503L76.5352 0L75.5378 0.0793442L75.5477 0.228268ZM8.02161 145L7.88705 141.596L8.11221 145H8.02161ZM50.0916 87.1557L51.0817 102.126L36.5582 103.282L35.5681 88.3111L50.0916 87.1557ZM35.4958 87.2172L50.0193 86.0618L49.0292 71.0911L34.5057 72.2465L35.4958 87.2172ZM34.5707 88.3904L35.5608 103.361L21.0373 104.517L20.0472 89.5458L34.5707 88.3904ZM19.9749 88.4519L34.4984 87.2966L33.5083 72.3258L18.9848 73.4812L19.9749 88.4519ZM22.1721 121.675L23.0914 135.575L37.6149 134.419L36.6956 120.52L22.1721 121.675ZM52.1441 118.191L37.6206 119.346L36.6305 104.376L51.154 103.22L52.1441 118.191ZM36.6233 119.426L22.0998 120.581L21.1097 105.61L35.6332 104.455L36.6233 119.426ZM17.9224 57.4166L32.4458 56.2612L33.4359 71.2319L18.9125 72.3873L17.9224 57.4166ZM32.4516 41.1883L33.3709 55.088L47.8944 53.9326L46.9751 40.0329L32.4516 41.1883ZM33.4432 56.1819L47.9667 55.0265L48.9568 69.9972L34.4333 71.1526L33.4432 56.1819Z" fill="#BED0D1"/>
<g filter="url(#filter1_d_42_45)">
<path d="M128.93 140.842V36.987C128.93 34.1196 131.858 32.1836 134.496 33.3064L173.099 49.7351C174.621 50.3829 175.587 51.9006 175.53 53.5538L172.51 140.98C172.436 143.134 170.668 144.842 168.512 144.842H132.93C130.721 144.842 128.93 143.051 128.93 140.842Z" fill="url(#paint2_linear_42_45)"/>
<path d="M128.93 140.842V36.987C128.93 34.1196 131.858 32.1836 134.496 33.3064L173.099 49.7351C174.621 50.3829 175.587 51.9006 175.53 53.5538L172.51 140.98C172.436 143.134 170.668 144.842 168.512 144.842H132.93C130.721 144.842 128.93 143.051 128.93 140.842Z" stroke="url(#paint3_linear_42_45)"/>
</g>
<path fill-rule="evenodd" clip-rule="evenodd" d="M135.062 2.46986L135.057 2.46945L135.056 2.48832L135.062 2.46986ZM133.082 32.3225L132.65 38.8596L127.93 38.4841V39.5838L132.578 39.9535L131.659 53.8533L127.93 53.5567V54.6563L131.586 54.9472L130.596 69.9179L127.93 69.7058V70.8054L130.524 71.0118L129.534 85.9825L127.93 85.8549V86.9546L129.461 87.0764L128.471 102.047L127.93 102.004V103.104L128.399 103.141L127.93 110.23V125.39L128.334 119.285L142.857 120.44L141.938 134.34L127.93 133.226V134.325L141.866 135.434L141.233 145H142.236L142.863 135.513L157.387 136.669L156.836 145H157.838L158.384 136.748L172.809 137.896L172.853 136.799L158.456 135.654L159.376 121.754L173.403 122.87L173.447 121.774L159.448 120.66L160.438 105.69L174.04 106.772L174.083 105.676L160.51 104.596L161.5 89.6252L174.676 90.6733L174.719 89.5771L161.573 88.5313L162.563 73.5606L175.312 74.5748L175.355 73.4786L162.635 72.4667L163.625 57.496L175.948 58.4763L175.992 57.3801L163.698 56.4021L164.425 45.4052L163.449 44.9979L162.7 56.3227L148.177 55.1673L149.096 41.2676L155.788 41.7999L152.533 40.4414L149.168 40.1737L149.242 39.0675L148.266 38.6602L148.171 40.0944L133.648 38.939L134.058 32.7298L133.082 32.3225ZM176.481 43.4462L176.542 43.451L176.55 43.2479L176.481 43.4462ZM105.003 0.228268H104L104.015 0L105.012 0.0793442L105.003 0.228268ZM172.529 145L172.663 141.596L172.438 145H172.529ZM130.459 87.1557L129.469 102.126L143.992 103.282L144.982 88.3111L130.459 87.1557ZM145.055 87.2172L130.531 86.0618L131.521 71.0911L146.045 72.2465L145.055 87.2172ZM145.98 88.3904L144.989 103.361L159.513 104.517L160.503 89.5458L145.98 88.3904ZM160.575 88.4519L146.052 87.2966L147.042 72.3258L161.565 73.4812L160.575 88.4519ZM158.378 121.675L157.459 135.575L142.935 134.419L143.855 120.52L158.378 121.675ZM128.406 118.191L142.93 119.346L143.92 104.376L129.396 103.22L128.406 118.191ZM143.927 119.426L158.451 120.581L159.441 105.61L144.917 104.455L143.927 119.426ZM162.628 57.4166L148.104 56.2612L147.114 71.2319L161.638 72.3873L162.628 57.4166ZM148.099 41.1883L147.179 55.088L132.656 53.9326L133.575 40.0329L148.099 41.1883ZM147.107 56.1819L132.584 55.0265L131.593 69.9972L146.117 71.1526L147.107 56.1819Z" fill="#BED0D1"/>
<g filter="url(#filter2_d_42_45)">
<path d="M49 22C49 16.4772 53.4772 12 59 12H121.924C127.447 12 131.924 16.4772 131.924 22V148.864H49V22Z" fill="url(#paint4_linear_42_45)"/>
</g>
<path fill-rule="evenodd" clip-rule="evenodd" d="M130 15V19H115V12H114V19H99V12H98V19H83V12H82V19H67V12H66V19H51V12H50V19H49V20H50V33H49V34H50V48H49V49H50V63H49V64H50V78H49V79H50V93H49V94H50V107H49V108H50V123H49V124H50V140H49V141H50V149H51V141H66V149H67V141H82V149H83V141H98V149H99V141H114V149H115V141H130V149H131V141H132V140H131V124H132V123H131V108H132V107H131V94H132V93H131V79H132V78H131V64H132V63H131V49H132V48H131V34H132V33H131V20H132V19H131V15H130ZM51 78V64H66V78H51ZM51 63H66V49H51V63ZM67 78V64H82V78H67ZM67 63H82V49H67V63ZM83 78V64H98V78H83ZM83 63H98V49H83V63ZM99 78V64H114V78H99ZM99 63H114V49H99V63ZM115 78V64H130V78H115ZM115 63H130V49H115V63ZM130 140V124H115V140H130ZM114 140V124H99V140H114ZM98 140V124H83V140H98ZM82 140V124H67V140H82ZM66 140V124H51V140H66ZM66 123H51V108H66V123ZM82 123H67V108H82V123ZM98 123H83V108H98V123ZM114 123H99V108H114V123ZM130 123H115V108H130V123ZM130 107V94H115V107H130ZM114 107V94H99V107H114ZM98 107V94H83V107H98ZM82 107V94H67V107H82ZM66 107V94H51V107H66ZM66 93H51V79H66V93ZM82 93H67V79H82V93ZM98 93H83V79H98V93ZM114 93H99V79H114V93ZM130 93H115V79H130V93ZM130 33V20H115V33H130ZM115 34H130V48H115V34ZM114 33V20H99V33H114ZM99 34H114V48H99V34ZM98 33V20H83V33H98ZM83 34H98V48H83V34ZM82 33V20H67V33H82ZM67 34H82V48H67V34ZM66 33V20H51V33H66ZM51 34H66V48H51V34Z" fill="#BED0D1"/>
<path d="M88.41 41.0053C88.1283 40.9762 87.8475 41.068 87.6373 41.2578C87.4272 41.4475 87.3073 41.7175 87.3075 42.0007L87.3193 59.3458H79.3157C72.7191 59.3458 65 63.9696 65 73.1775V75C65 79.5842 66.648 83.0039 69.4025 85.2564C72.1267 87.4841 75.8206 88.4793 79.7781 88.4793H87.3075V105C87.3075 105.552 87.7552 106 88.3075 106H89.6197C90.172 106 90.6197 105.552 90.6197 105V88.4793H110.638C110.908 88.4793 111.167 88.3699 111.355 88.1759C111.544 87.982 111.645 87.72 111.637 87.4498C111.616 86.7081 111.596 85.9942 111.576 85.3059C111.428 80.0214 111.321 76.2424 110.767 72.929C110.208 69.5917 109.198 66.7309 107.29 63.24H115.6V66.1775C115.6 66.7298 116.047 67.1775 116.6 67.1775H118C118.552 67.1775 119 66.7298 119 66.1775V60.2713C119 59.719 118.552 59.2713 118 59.2713H105.767C105.653 59.0942 105.537 58.9139 105.419 58.7307C103.42 55.6238 100.871 51.663 98.1512 48.3007C96.6397 46.4321 95.0489 44.7145 93.4405 43.4176C91.8466 42.1323 90.1424 41.1838 88.41 41.0053ZM90.6314 59.3458L90.6208 45.2175C91.1614 45.557 91.7466 46.0471 92.3723 46.6902C93.4784 47.8268 94.6083 49.3324 95.7338 51.0082C96.8567 52.6801 97.9522 54.4863 98.9992 56.2157L99.0633 56.3216C99.7019 57.3765 100.325 58.4052 100.92 59.3458H90.6314ZM90.6316 63.24H103.068C103.092 63.2784 103.117 63.3178 103.143 63.3581C103.368 63.7107 103.64 64.1381 103.951 64.6436C104.444 65.4441 104.87 66.1809 105.02 66.5519C107.111 71.731 107.436 77.0154 107.791 82.8003C107.835 83.5216 107.88 84.2506 107.929 84.9882H90.6202L90.6316 63.24ZM79.3157 63.24H87.3194L87.308 84.9882H79.7781C76.4698 84.9882 73.6008 84.2253 71.5805 82.641C69.5988 81.0869 68.3122 78.6484 68.3122 75V73.1775C68.3122 69.4997 69.504 67.0765 71.3666 65.548C73.2633 63.9914 76.0043 63.24 79.3157 63.24Z" fill="#263E79" stroke="#263E79" stroke-width="2" stroke-linejoin="round"/>
<defs>
<filter id="filter0_d_42_45" x="0.51767" y="32.4822" width="55.6025" height="120.86" filterUnits="userSpaceOnUse" color-interpolation-filters="sRGB">
<feFlood flood-opacity="0" result="BackgroundImageFix"/>
<feColorMatrix in="SourceAlpha" type="matrix" values="0 0 0 0 0 0 0 0 0 0 0 0 0 0 0 0 0 0 127 0" result="hardAlpha"/>
<feOffset dy="4"/>
<feGaussianBlur stdDeviation="2"/>
<feComposite in2="hardAlpha" operator="out"/>
<feColorMatrix type="matrix" values="0 0 0 0 0 0 0 0 0 0 0 0 0 0 0 0 0 0 0.25 0"/>
<feBlend mode="normal" in2="BackgroundImageFix" result="effect1_dropShadow_42_45"/>
<feBlend mode="normal" in="SourceGraphic" in2="effect1_dropShadow_42_45" result="shape"/>
</filter>
<filter id="filter1_d_42_45" x="124.43" y="32.4822" width="55.6025" height="120.86" filterUnits="userSpaceOnUse" color-interpolation-filters="sRGB">
<feFlood flood-opacity="0" result="BackgroundImageFix"/>
<feColorMatrix in="SourceAlpha" type="matrix" values="0 0 0 0 0 0 0 0 0 0 0 0 0 0 0 0 0 0 127 0" result="hardAlpha"/>
<feOffset dy="4"/>
<feGaussianBlur stdDeviation="2"/>
<feComposite in2="hardAlpha" operator="out"/>
<feColorMatrix type="matrix" values="0 0 0 0 0 0 0 0 0 0 0 0 0 0 0 0 0 0 0.25 0"/>
<feBlend mode="normal" in2="BackgroundImageFix" result="effect1_dropShadow_42_45"/>
<feBlend mode="normal" in="SourceGraphic" in2="effect1_dropShadow_42_45" result="shape"/>
</filter>
<filter id="filter2_d_42_45" x="35.7" y="2.7" width="109.524" height="163.464" filterUnits="userSpaceOnUse" color-interpolation-filters="sRGB">
<feFlood flood-opacity="0" result="BackgroundImageFix"/>
<feColorMatrix in="SourceAlpha" type="matrix" values="0 0 0 0 0 0 0 0 0 0 0 0 0 0 0 0 0 0 127 0" result="hardAlpha"/>
<feOffset dy="4"/>
<feGaussianBlur stdDeviation="6.65"/>
<feComposite in2="hardAlpha" operator="out"/>
<feColorMatrix type="matrix" values="0 0 0 0 0 0 0 0 0 0 0 0 0 0 0 0 0 0 0.25 0"/>
<feBlend mode="normal" in2="BackgroundImageFix" result="effect1_dropShadow_42_45"/>
<feBlend mode="normal" in="SourceGraphic" in2="effect1_dropShadow_42_45" result="shape"/>
</filter>
<linearGradient id="paint0_linear_42_45" x1="28.2727" y1="30.9374" x2="28.2727" y2="144.842" gradientUnits="userSpaceOnUse">
<stop stop-color="#DDF0F1"/>
<stop offset="1" stop-color="#95A7A8"/>
</linearGradient>
<linearGradient id="paint1_linear_42_45" x1="28.2727" y1="30.9374" x2="28.2727" y2="144.842" gradientUnits="userSpaceOnUse">
<stop stop-color="#DFF2F3"/>
<stop offset="1" stop-color="#91A5A6"/>
</linearGradient>
<linearGradient id="paint2_linear_42_45" x1="152.278" y1="30.9374" x2="152.278" y2="144.842" gradientUnits="userSpaceOnUse">
<stop stop-color="#DDF0F1"/>
<stop offset="1" stop-color="#95A7A8"/>
</linearGradient>
<linearGradient id="paint3_linear_42_45" x1="152.278" y1="30.9374" x2="152.278" y2="144.842" gradientUnits="userSpaceOnUse">
<stop stop-color="#DFF2F3"/>
<stop offset="1" stop-color="#91A5A6"/>
</linearGradient>
<linearGradient id="paint4_linear_42_45" x1="90.4619" y1="12" x2="90.4619" y2="148.864" gradientUnits="userSpaceOnUse">
<stop stop-color="#DFF2F3"/>
<stop offset="0.851564" stop-color="#A2AEAF"/>
<stop offset="1" stop-color="#90A4A6"/>
</linearGradient>
</defs>
</svg>
