<svg width="14" height="16" viewBox="0 0 14 16" fill="none" xmlns="http://www.w3.org/2000/svg">
<path d="M13.2975 1.71661e-05C13.3775 1.71661e-05 13.4575 0.0640173 13.4575 0.160017C13.4575 0.192017 13.4575 0.240017 13.4255 0.256017L7.87349 6.30402L13.5215 7.96802C13.5695 7.98402 13.6175 8.04802 13.6175 8.11202C13.6175 8.16002 13.6015 8.22402 13.5535 8.24002L0.929492 15.952C0.897492 15.968 0.881492 15.968 0.849492 15.968C0.785492 15.968 0.689492 15.92 0.689492 15.824C0.689492 15.792 0.705492 15.744 0.737492 15.712L6.27349 9.68002L0.609492 8.25602C0.561492 8.24002 0.497492 8.19202 0.497492 8.14402C0.497492 8.08002 0.529492 8.01602 0.577492 7.98402L13.2175 0.0320168C13.2495 1.71661e-05 13.2815 1.71661e-05 13.2975 1.71661e-05Z" fill="black"/>
</svg>
